<?xml version="1.0" standalone="no"?>
<!DOCTYPE svg PUBLIC "-//W3C//DTD SVG 20010904//EN"
 "http://www.w3.org/TR/2001/REC-SVG-20010904/DTD/svg10.dtd">
<svg version="1.0" xmlns="http://www.w3.org/2000/svg"
 width="200.000000pt" height="200.000000pt" viewBox="0 0 200.000000 200.000000"
 preserveAspectRatio="xMidYMid meet">

<g transform="translate(0.000000,200.000000) scale(0.100000,-0.100000)"
fill="#000000" stroke="none">
<path d="M362 1188 c-73 -28 -131 -56 -129 -62 2 -6 31 -21 65 -34 l62 -24 0
-74 0 -75 37 -15 c59 -25 132 -29 196 -10 l57 17 0 67 c0 73 4 83 37 101 40
21 43 15 43 -95 0 -80 3 -105 13 -102 8 3 13 37 15 114 2 83 6 111 17 117 8 4
15 12 15 16 0 8 -269 112 -286 110 -5 0 -69 -23 -142 -51z"/>
<path d="M1240 1225 c0 -9 -10 -15 -26 -15 -23 0 -25 -3 -22 -32 2 -28 8 -34
31 -36 26 -3 27 -2 27 47 0 28 -2 51 -5 51 -3 0 -5 -7 -5 -15z m-10 -44 c0
-23 -16 -36 -25 -21 -9 14 1 40 15 40 5 0 10 -9 10 -19z"/>
<path d="M891 1183 c1 -27 4 -38 6 -26 2 13 13 24 26 26 l22 4 -22 2 c-13 0
-23 7 -23 15 0 8 10 17 23 19 19 4 18 4 -5 6 -27 1 -28 -1 -27 -46z"/>
<path d="M1279 1228 c0 -2 -3 -22 -5 -46 -5 -42 -5 -42 25 -40 26 2 31 6 30
28 l0 25 -11 -22 c-13 -26 -38 -31 -38 -7 0 10 6 14 14 11 10 -4 14 0 13 13
-1 10 -6 18 -12 17 -5 -1 -9 4 -7 11 2 10 -6 19 -9 10z"/>
<path d="M1351 1188 c-1 -46 0 -48 27 -47 23 0 24 1 7 8 -13 5 -22 21 -26 47
l-6 39 -2 -47z"/>
<path d="M1558 1220 c-9 -28 4 -80 21 -80 13 0 13 2 2 9 -8 5 -12 19 -9 34 5
28 -6 59 -14 37z"/>
<path d="M955 1189 c-9 -26 16 -55 40 -45 25 9 16 60 -12 64 -15 2 -23 -3 -28
-19z m41 -4 c3 -8 3 -19 -1 -25 -10 -16 -35 7 -28 26 7 18 22 18 29 -1z"/>
<path d="M1033 1180 c2 -31 5 -35 30 -36 25 -1 27 2 26 35 -1 31 -2 33 -8 11
-4 -14 -13 -25 -21 -25 -8 0 -17 11 -21 25 -7 21 -8 19 -6 -10z"/>
<path d="M1111 1173 c1 -35 2 -36 8 -9 9 41 28 43 40 4 l10 -33 -2 35 c-2 30
-6 35 -29 38 -26 3 -28 1 -27 -35z"/>
<path d="M1422 1178 c4 -39 31 -50 47 -19 15 28 3 51 -26 51 -21 0 -24 -4 -21
-32z m38 3 c0 -23 -16 -36 -25 -21 -9 14 1 40 15 40 5 0 10 -9 10 -19z"/>
<path d="M1490 1195 c0 -9 7 -18 15 -21 8 -4 15 -11 15 -16 0 -6 -7 -8 -15 -4
-8 3 -15 1 -15 -4 0 -14 37 -12 46 1 4 7 -3 20 -16 29 -22 17 -23 18 -4 23 16
4 16 5 -3 6 -15 1 -23 -5 -23 -14z"/>
<path d="M1140 1045 c0 -8 5 -15 10 -15 6 0 10 7 10 15 0 8 -4 15 -10 15 -5 0
-10 -7 -10 -15z"/>
<path d="M1565 1049 c-10 -15 3 -25 16 -12 7 7 7 13 1 17 -6 3 -14 1 -17 -5z"/>
<path d="M890 981 c0 -84 35 -116 80 -71 15 15 20 33 20 75 0 30 -4 55 -10 55
-5 0 -10 -21 -10 -47 0 -56 -10 -76 -36 -71 -16 3 -20 14 -22 61 -4 75 -22 74
-22 -2z"/>
<path d="M1613 1023 c4 -3 1 -13 -6 -21 -9 -12 -9 -16 1 -19 7 -3 12 -21 12
-43 0 -39 23 -61 43 -41 7 7 5 12 -6 17 -20 7 -23 59 -4 68 10 5 10 7 0 12 -7
3 -13 12 -13 20 0 8 -7 14 -17 14 -9 0 -13 -3 -10 -7z"/>
<path d="M1020 948 c0 -32 4 -58 10 -58 6 0 10 15 10 33 0 41 13 62 34 54 11
-4 16 -19 16 -47 0 -22 5 -40 11 -40 6 0 9 21 7 53 l-3 52 -42 6 -43 5 0 -58z"/>
<path d="M1140 949 c0 -37 4 -58 10 -54 6 3 10 31 10 61 0 30 -4 54 -10 54 -6
0 -10 -27 -10 -61z"/>
<path d="M1180 1002 c0 -5 7 -29 16 -55 24 -70 48 -60 70 28 10 40 -13 29 -27
-12 l-12 -38 -14 43 c-13 36 -33 58 -33 34z"/>
<path d="M1400 952 c0 -35 4 -62 10 -62 6 0 10 18 10 40 0 27 5 43 15 46 8 4
15 13 15 21 0 12 -3 13 -13 4 -10 -8 -17 -7 -25 1 -9 9 -12 -2 -12 -50z"/>
<path d="M1560 956 c0 -30 5 -58 10 -61 6 -4 10 17 10 54 0 34 -4 61 -10 61
-5 0 -10 -24 -10 -54z"/>
<path d="M1290 976 c-12 -32 2 -71 27 -78 22 -6 43 0 43 13 0 6 -6 9 -12 8
-24 -3 -38 1 -38 11 0 6 15 10 34 10 32 0 34 1 27 28 -6 21 -14 28 -39 30 -27
3 -34 -1 -42 -22z m58 -4 c2 -7 -6 -12 -17 -12 -21 0 -27 11 -14 24 9 9 26 2
31 -12z"/>
<path d="M1470 975 c0 -18 7 -28 26 -35 28 -11 23 -34 -6 -25 -10 3 -21 2 -24
-3 -9 -14 35 -22 56 -11 25 13 19 41 -10 54 -24 11 -24 32 1 27 8 -1 18 2 22
8 4 6 -8 10 -29 10 -32 0 -36 -3 -36 -25z"/>
<path d="M1680 991 c0 -5 7 -28 15 -52 16 -43 13 -75 -4 -64 -5 3 -12 1 -16
-5 -10 -16 25 -24 40 -9 18 20 57 141 43 137 -6 -2 -17 -20 -24 -39 l-12 -34
-11 28 c-6 16 -11 33 -11 38 0 5 -4 9 -10 9 -5 0 -10 -4 -10 -9z"/>
</g>
</svg>
